<svg width="11" height="12" viewBox="0 0 11 12" fill="none" xmlns="http://www.w3.org/2000/svg">
<path opacity="0.4" d="M10.923 4.94143C10.8858 4.71368 10.6667 4.55852 10.4336 4.59486C10.2005 4.6312 10.0417 4.8453 10.0789 5.07305C10.0793 5.07554 10.0798 5.07802 10.0802 5.08049C10.5154 7.58389 8.7913 9.95803 6.22924 10.3833C3.66719 10.8086 1.23742 9.1239 0.802196 6.62049C0.366968 4.11709 2.09113 1.74295 4.65316 1.31768C6.22877 1.05616 7.83252 1.59393 8.91175 2.74569L7.01846 3.36206C6.79449 3.43488 6.67336 3.67129 6.74786 3.89014C6.74789 3.89019 6.74791 3.89026 6.74794 3.89031C6.82246 4.10916 7.06441 4.22751 7.28839 4.15472C7.28846 4.15469 7.28851 4.15467 7.28856 4.15467L9.85285 3.31948C10.0274 3.26267 10.1452 3.10301 10.1452 2.92319V0.417605C10.1452 0.186965 9.95385 0 9.7178 0C9.48176 0 9.29041 0.186965 9.29041 0.417605V1.94308C7.08943 -0.102401 3.60814 -0.0171769 1.51474 2.13342C-0.578663 4.28401 -0.491467 7.68561 1.70954 9.73111C3.91054 11.7766 7.39181 11.6914 9.48524 9.54077C10.679 8.3144 11.2117 6.61024 10.923 4.94143Z" fill="white"/>
</svg>
